<?xml version="1.0" encoding="UTF-8" standalone="no"?>
<!DOCTYPE svg PUBLIC "-//W3C//DTD SVG 1.1//EN" "http://www.w3.org/Graphics/SVG/1.1/DTD/svg11.dtd">
<svg width="100%" height="100%" viewBox="0 0 128 45" version="1.1" xmlns="http://www.w3.org/2000/svg" xmlns:xlink="http://www.w3.org/1999/xlink" xml:space="preserve" style="fill-rule:evenodd;clip-rule:evenodd;stroke-linejoin:round;stroke-miterlimit:1.41421;">
    <g transform="matrix(0.486297,0,0,0.486297,5.8312,11.8384)">
        <path d="M95.811,44.364L127.059,7.498L127.059,1.957L125.679,0L96.8,0L97.43,0.883L125.176,0.883L93.151,38.694L82.186,23.315L95.592,7.498L95.592,1.957L94.323,0.158L64.029,35.933L64.029,1.957L62.761,0.158L32.515,35.876L32.515,1.957L31.246,0.158L0,37.058L0,42.593L1.267,44.364L31.515,8.679L31.515,42.593L32.781,44.364L63.028,8.68L63.027,42.593L64.344,44.364L81.434,24.202" style="fill:white;fill-rule:nonzero;"/>
    </g>
    <g transform="matrix(0.230856,0,0,0.20857,133.516,22.3331)">
        <g transform="matrix(1,0,0,1,-240.859,-101.781)">
            <g id="layer1" transform="matrix(1,0,0,1,258,-219.156)">
                <path id="path5775" d="M-129.969,340.071C-131.47,340.514 -132.666,340.666 -134.231,340.666C-147.071,340.666 -165.931,295.796 -165.931,280.862C-165.931,275.361 -164.625,273.527 -162.789,271.956C-178.506,273.789 -197.369,279.554 -203.396,286.889C-204.705,288.724 -205.491,291.605 -205.491,295.271C-205.491,318.589 -180.604,371.505 -163.05,371.505C-154.93,371.505 -141.234,358.145 -129.969,340.071" style="fill:rgb(255,135,0);fill-rule:nonzero;"/>
                <path id="path5779" d="M-138.165,270.383C-121.922,270.383 -105.677,273.003 -105.677,282.172C-105.677,300.773 -117.466,323.303 -123.492,323.303C-134.232,323.303 -147.593,293.439 -147.593,278.505C-147.593,271.694 -144.973,270.383 -138.165,270.383" style="fill:rgb(255,135,0);fill-rule:nonzero;"/>
            </g>
        </g>
    </g>
    <g transform="matrix(1,0,0,1,-5.8496,5.5072)">
        <text x="81.623px" y="22.155px" style="font-family:'ArialRoundedMTBold', 'Arial Rounded MT Bold', sans-serif;font-size:12px;fill:rgb(204,204,204);">+</text>
    </g>
</svg>
