<svg version="1.1" id="Ebene_1" xmlns="http://www.w3.org/2000/svg" xmlns:xlink="http://www.w3.org/1999/xlink" x="0px" y="0px" width="127.059px" height="44.363px" viewBox="0 0 127.059 44.363" enable-background="new 0 0 127.059 44.363" xml:space="preserve"> <polyline points="95.811,44.364 127.059,7.498 127.059,1.957 125.679,0 96.8,0 97.43,0.883 125.176,0.883 93.151,38.694  	82.186,23.315 95.592,7.498 95.592,1.957 94.323,0.158 64.029,35.933 64.029,1.957 62.761,0.158 32.515,35.876 32.515,1.957  	31.246,0.158 0,37.058 0,42.593 1.267,44.364 31.515,8.679 31.515,42.593 32.781,44.364 63.028,8.68 63.027,42.593 64.344,44.364  	81.434,24.202 "></polyline> </svg>